<svg width="48" height="40" viewBox="0 0 48 40" fill="none" xmlns="http://www.w3.org/2000/svg">
<g filter="url(#filter0_d_832_1120)">
<path fill-rule="evenodd" clip-rule="evenodd" d="M43.5744 13.078C43.3036 13.3412 42.9362 13.4914 42.5494 13.4914C41.118 13.4914 39.9574 14.619 39.9574 15.9906C39.9574 17.3716 41.1044 18.4934 42.5222 18.5086C43.321 18.516 44 19.0572 44 19.8332V24.653C44 28.7098 40.615 32 36.4372 32H30.1316C29.4796 32 28.9516 31.487 28.9516 30.8538V26.795C28.9516 26.0058 28.3134 25.3858 27.501 25.3858C26.708 25.3858 26.0502 26.0058 26.0502 26.795V30.8538C26.0502 31.487 25.5222 32 24.8724 32H11.5629C7.40426 32 4 28.7116 4 24.653V19.8332C4 19.0572 4.67892 18.516 5.47776 18.5086C6.89748 18.4934 8.04256 17.3716 8.04256 15.9906C8.04256 14.6564 6.9207 13.6418 5.45068 13.6418C5.06382 13.6418 4.69632 13.4914 4.42554 13.2284C4.15474 12.9654 4 12.6084 4 12.2326V7.36582C4 3.31462 7.412 0 11.5822 0H24.8724C25.5222 0 26.0502 0.51298 26.0502 1.14622V5.95654C26.0502 6.72696 26.708 7.36582 27.501 7.36582C28.3134 7.36582 28.9516 6.72696 28.9516 5.95654V1.14622C28.9516 0.51298 29.4796 0 30.1316 0H36.4372C40.615 0 44 3.28832 44 7.34704V12.0822C44 12.458 43.8452 12.815 43.5744 13.078ZM27.501 21.7404C28.3134 21.7404 28.9516 21.1016 28.9516 20.3312V12.815C28.9516 12.0446 28.3134 11.4058 27.501 11.4058C26.708 11.4058 26.0502 12.0446 26.0502 12.815V20.3312C26.0502 21.1016 26.708 21.7404 27.501 21.7404Z" fill="white"/>
</g>
<defs>
<filter id="filter0_d_832_1120" x="0" y="0" width="48" height="40" filterUnits="userSpaceOnUse" color-interpolation-filters="sRGB">
<feFlood flood-opacity="0" result="BackgroundImageFix"/>
<feColorMatrix in="SourceAlpha" type="matrix" values="0 0 0 0 0 0 0 0 0 0 0 0 0 0 0 0 0 0 127 0" result="hardAlpha"/>
<feOffset dy="4"/>
<feGaussianBlur stdDeviation="2"/>
<feComposite in2="hardAlpha" operator="out"/>
<feColorMatrix type="matrix" values="0 0 0 0 0 0 0 0 0 0 0 0 0 0 0 0 0 0 0.25 0"/>
<feBlend mode="normal" in2="BackgroundImageFix" result="effect1_dropShadow_832_1120"/>
<feBlend mode="normal" in="SourceGraphic" in2="effect1_dropShadow_832_1120" result="shape"/>
</filter>
</defs>
</svg>
